<mxfile host="65bd71144e">
    <diagram id="oTvSLYo131D89A0Ls2I9" name="Page-1">
        <mxGraphModel dx="1781" dy="583" grid="1" gridSize="10" guides="1" tooltips="1" connect="1" arrows="1" fold="1" page="1" pageScale="1" pageWidth="1169" pageHeight="827" math="0" shadow="0">
            <root>
                <mxCell id="0"/>
                <mxCell id="1" parent="0"/>
                <mxCell id="2" value="Label" style="verticalLabelPosition=bottom;verticalAlign=top;html=1;shape=mxgraph.infographic.cylinder;isoAngle=15;fillColor=#10739E;strokeColor=none;fontStyle=1;fontColor=#10739E;fontSize=12;shadow=0;" vertex="1" parent="1">
                    <mxGeometry x="220" y="180" width="40" height="80" as="geometry"/>
                </mxCell>
                <mxCell id="3" value="Label" style="verticalLabelPosition=bottom;verticalAlign=top;html=1;shape=mxgraph.infographic.cylinder;isoAngle=15;fillColor=#F2931E;strokeColor=none;fontStyle=1;fontColor=#F2931E;fontSize=12;shadow=0;" vertex="1" parent="1">
                    <mxGeometry x="270" y="160" width="40" height="100" as="geometry"/>
                </mxCell>
                <mxCell id="4" value="Label" style="verticalLabelPosition=bottom;verticalAlign=top;html=1;shape=mxgraph.infographic.cylinder;isoAngle=15;fillColor=#AE4132;strokeColor=none;fontStyle=1;fontColor=#AE4132;fontSize=12;shadow=0;" vertex="1" parent="1">
                    <mxGeometry x="320" y="170" width="40" height="90" as="geometry"/>
                </mxCell>
                <mxCell id="5" value="Label" style="verticalLabelPosition=bottom;verticalAlign=top;html=1;shape=mxgraph.infographic.cylinder;isoAngle=15;fillColor=#23445D;strokeColor=none;fontStyle=1;fontColor=#23445D;fontSize=12;shadow=0;" vertex="1" parent="1">
                    <mxGeometry x="370" y="210" width="40" height="50" as="geometry"/>
                </mxCell>
                <mxCell id="6" value="Label" style="verticalLabelPosition=bottom;verticalAlign=top;html=1;shape=mxgraph.infographic.cylinder;isoAngle=15;fillColor=#12AAB5;strokeColor=none;fontStyle=1;fontColor=#12AAB5;fontSize=12;shadow=0;" vertex="1" parent="1">
                    <mxGeometry x="420" y="190" width="40" height="70" as="geometry"/>
                </mxCell>
                <mxCell id="7" value="" style="verticalLabelPosition=top;verticalAlign=bottom;html=1;shape=mxgraph.infographic.cylinder;isoAngle=15;fillColor=#CCCCCC;strokeColor=none;fontStyle=1;fontColor=#10739E;fontSize=12;shadow=0;align=left;opacity=70;" vertex="1" parent="1">
                    <mxGeometry x="220" y="140" width="40" height="60" as="geometry"/>
                </mxCell>
                <mxCell id="8" value="" style="verticalLabelPosition=top;verticalAlign=bottom;html=1;shape=mxgraph.infographic.cylinder;isoAngle=15;fillColor=#CCCCCC;strokeColor=none;fontStyle=1;fontColor=#F2931E;fontSize=12;shadow=0;align=left;opacity=70;" vertex="1" parent="1">
                    <mxGeometry x="270" y="140" width="40" height="40" as="geometry"/>
                </mxCell>
                <mxCell id="9" value="" style="verticalLabelPosition=top;verticalAlign=bottom;html=1;shape=mxgraph.infographic.cylinder;isoAngle=15;fillColor=#CCCCCC;strokeColor=none;fontStyle=1;fontColor=#AE4132;fontSize=12;shadow=0;align=left;opacity=70;" vertex="1" parent="1">
                    <mxGeometry x="320" y="140" width="40" height="50" as="geometry"/>
                </mxCell>
                <mxCell id="10" value="" style="verticalLabelPosition=top;verticalAlign=bottom;html=1;shape=mxgraph.infographic.cylinder;isoAngle=15;fillColor=#CCCCCC;strokeColor=none;fontStyle=1;fontColor=#23445D;fontSize=12;shadow=0;align=left;opacity=70;" vertex="1" parent="1">
                    <mxGeometry x="370" y="140" width="40" height="90" as="geometry"/>
                </mxCell>
                <mxCell id="11" value="" style="verticalLabelPosition=top;verticalAlign=bottom;html=1;shape=mxgraph.infographic.cylinder;isoAngle=15;fillColor=#CCCCCC;strokeColor=none;fontStyle=1;fontColor=#12AAB5;fontSize=12;shadow=0;align=left;opacity=70;" vertex="1" parent="1">
                    <mxGeometry x="420" y="140" width="40" height="70" as="geometry"/>
                </mxCell>
                <mxCell id="12" value="65%" style="verticalLabelPosition=middle;verticalAlign=middle;html=1;html=1;shape=mxgraph.infographic.partConcEllipse;startAngle=0;endAngle=0.65;arcWidth=0.4;strokeColor=none;fillColor=#10739E;fontSize=22;fontColor=#10739E;align=center;fontStyle=1;" vertex="1" parent="1">
                    <mxGeometry x="570" y="60" width="100" height="100" as="geometry"/>
                </mxCell>
                <mxCell id="13" value="40%" style="verticalLabelPosition=middle;verticalAlign=middle;html=1;html=1;shape=mxgraph.infographic.partConcEllipse;startAngle=0;endAngle=0.4;arcWidth=0.4;strokeColor=none;fillColor=#F2931E;fontSize=22;fontColor=#F2931E;align=center;fontStyle=1;" vertex="1" parent="1">
                    <mxGeometry x="570" y="170" width="100" height="100" as="geometry"/>
                </mxCell>
                <mxCell id="14" value="25%" style="verticalLabelPosition=middle;verticalAlign=middle;html=1;html=1;shape=mxgraph.infographic.partConcEllipse;startAngle=0;endAngle=0.25;arcWidth=0.4;strokeColor=none;fillColor=#AE4132;fontSize=22;fontColor=#AE4132;align=center;fontStyle=1;" vertex="1" parent="1">
                    <mxGeometry x="570" y="280" width="100" height="100" as="geometry"/>
                </mxCell>
                <mxCell id="15" value="60%" style="verticalLabelPosition=middle;verticalAlign=middle;html=1;html=1;shape=mxgraph.infographic.partConcEllipse;startAngle=0;endAngle=0.6;arcWidth=0.4;strokeColor=none;fillColor=#23445D;fontSize=22;fontColor=#23445D;align=center;fontStyle=1;" vertex="1" parent="1">
                    <mxGeometry x="570" y="390" width="100" height="100" as="geometry"/>
                </mxCell>
                <mxCell id="16" value="80%" style="verticalLabelPosition=middle;verticalAlign=middle;html=1;html=1;shape=mxgraph.infographic.partConcEllipse;startAngle=0;endAngle=0.8;arcWidth=0.4;strokeColor=none;fillColor=#12AAB5;fontSize=22;fontColor=#12AAB5;align=center;fontStyle=1;" vertex="1" parent="1">
                    <mxGeometry x="570" y="500" width="100" height="100" as="geometry"/>
                </mxCell>
                <mxCell id="17" value="&lt;font style=&quot;font-size: 10px&quot;&gt;&lt;font style=&quot;font-size: 12px&quot; color=&quot;#10739E&quot;&gt;&lt;b&gt;Label&lt;/b&gt;&lt;/font&gt;&lt;br&gt;&lt;br&gt;&lt;font size=&quot;1&quot;&gt;Lorem ipsum dolor sit amet, consectetur adipisicing elit, sed do eiusmod tempor incididunt ut labore et dolore magna aliqua.&lt;/font&gt;&lt;/font&gt;" style="rounded=1;strokeColor=none;fillColor=#EEEEEE;align=left;arcSize=12;verticalAlign=top;whiteSpace=wrap;html=1;fontSize=12;spacing=8;" vertex="1" parent="1">
                    <mxGeometry x="680" y="60" width="210" height="100" as="geometry"/>
                </mxCell>
                <mxCell id="18" value="&lt;font style=&quot;font-size: 10px&quot;&gt;&lt;font style=&quot;font-size: 12px&quot; color=&quot;#F2931E&quot;&gt;&lt;b&gt;Label&lt;/b&gt;&lt;/font&gt;&lt;br&gt;&lt;br&gt;&lt;font size=&quot;1&quot;&gt;Lorem ipsum dolor sit amet, consectetur adipisicing elit, sed do eiusmod tempor incididunt ut labore et dolore magna aliqua.&lt;/font&gt;&lt;/font&gt;" style="rounded=1;strokeColor=none;fillColor=#EEEEEE;align=left;arcSize=12;verticalAlign=top;whiteSpace=wrap;html=1;fontSize=12;spacing=8;" vertex="1" parent="1">
                    <mxGeometry x="680" y="170" width="210" height="100" as="geometry"/>
                </mxCell>
                <mxCell id="19" value="&lt;font style=&quot;font-size: 10px&quot;&gt;&lt;font style=&quot;font-size: 12px&quot; color=&quot;#AE4132&quot;&gt;&lt;b&gt;Label&lt;/b&gt;&lt;/font&gt;&lt;br&gt;&lt;br&gt;&lt;font size=&quot;1&quot;&gt;Lorem ipsum dolor sit amet, consectetur adipisicing elit, sed do eiusmod tempor incididunt ut labore et dolore magna aliqua.&lt;/font&gt;&lt;/font&gt;" style="rounded=1;strokeColor=none;fillColor=#EEEEEE;align=left;arcSize=12;verticalAlign=top;whiteSpace=wrap;html=1;fontSize=12;spacing=8;" vertex="1" parent="1">
                    <mxGeometry x="680" y="280" width="210" height="100" as="geometry"/>
                </mxCell>
                <mxCell id="20" value="&lt;font style=&quot;font-size: 10px&quot;&gt;&lt;font style=&quot;font-size: 12px&quot; color=&quot;#23445D&quot;&gt;&lt;b&gt;Label&lt;/b&gt;&lt;/font&gt;&lt;br&gt;&lt;br&gt;&lt;font size=&quot;1&quot;&gt;Lorem ipsum dolor sit amet, consectetur adipisicing elit, sed do eiusmod tempor incididunt ut labore et dolore magna aliqua.&lt;/font&gt;&lt;/font&gt;" style="rounded=1;strokeColor=none;fillColor=#EEEEEE;align=left;arcSize=12;verticalAlign=top;whiteSpace=wrap;html=1;fontSize=12;spacing=8;" vertex="1" parent="1">
                    <mxGeometry x="680" y="390" width="210" height="100" as="geometry"/>
                </mxCell>
                <mxCell id="21" value="&lt;font style=&quot;font-size: 10px&quot;&gt;&lt;font style=&quot;font-size: 12px&quot; color=&quot;#12AAB5&quot;&gt;&lt;b&gt;Label&lt;/b&gt;&lt;/font&gt;&lt;br&gt;&lt;br&gt;&lt;font size=&quot;1&quot;&gt;Lorem ipsum dolor sit amet, consectetur adipisicing elit, sed do eiusmod tempor incididunt ut labore et dolore magna aliqua.&lt;/font&gt;&lt;/font&gt;" style="rounded=1;strokeColor=none;fillColor=#EEEEEE;align=left;arcSize=12;verticalAlign=top;whiteSpace=wrap;html=1;fontSize=12;spacing=8;" vertex="1" parent="1">
                    <mxGeometry x="680" y="500" width="210" height="100" as="geometry"/>
                </mxCell>
            </root>
        </mxGraphModel>
    </diagram>
</mxfile>